<svg xmlns="http://www.w3.org/2000/svg" viewBox="0 0 512 512"><defs><style>.cls-1{fill:#b7d7e5;}</style></defs><g id="Layer_5" data-name="Layer 5"><path class="cls-1" d="M364.05,345.26c.52,2.72,1,5.63-.14,8.15-2.05,4.59-8.56,5.5-13.09,3.32s-7.61-6.44-10.81-10.3a98.57,98.57,0,0,0-72.47-35.13c-8.4-.2-18.39-.05-23.15-7-4.24-6.18-1.77-14.49.31-21.68,11.55-39.84,6.25-83-7.29-122.24-13.66-39.52-40.08-72.47-55.23-110.49C206,33.36,287.6,156.46,299.2,175.79A517.7,517.7,0,0,1,364.05,345.26Z"/><path d="M49.63,349.78s-.05-.06-.08-.06S49.6,349.78,49.63,349.78Z"/><path d="M458.12,409.36a22.5,22.5,0,0,0,8.34,5.23c6.48,2.12,13.34,1.57,20,1.31,7.57-.3,15.87-2.89,23.23-4.38.42-.09,1.95.58,1.07.92C507,413.91,490.29,417.79,486,418c-7.06.27-14.39.43-21.09-2.76a31.75,31.75,0,0,1-7.66-5.32c-2-1.79-3.85-3.82-5.93-5.42l.51-.69A80,80,0,0,1,458.12,409.36Z"/><path d="M377.41,398.06c3.55,2.68,6.86,5.87,10.18,8.92,5,4.53,10.21,9.17,16.4,10.62a22.8,22.8,0,0,0,18.35-3.66c4.93-3.42,8.93-8.6,14-11.71a12.4,12.4,0,0,1,7.45-2.05,15.08,15.08,0,0,1,7.33,3l.74.55-.51.69c-.29-.24-.59-.45-.9-.67-5.36-3.66-11-.69-15.61,3.26s-8.89,8.82-14.37,11.17a23.25,23.25,0,0,1-17.85.21c-5.84-2.32-11-6.6-15.88-11.07-3.19-2.91-6.36-6.1-9.79-8.72Z"/><path d="M317.41,394.2c2.9.82,9.1.24,13.88-2.34,3.85-2.09,8.41-6.53,7.12-8.75-1.39-2.44-7.82-1.17-16.69,6.53A25.45,25.45,0,0,0,317.41,394.2Zm35.59-.79a22.08,22.08,0,0,1,18.68,1,38.2,38.2,0,0,1,5.73,3.69l-.45.58a29.74,29.74,0,0,0-6.47-3.89c-5.93-2.49-12.06-1.54-17.85,1-6.05,2.67-12.14,5.74-18.24,9s-14.94,6.81-20.49,3.59c-2.43-1.4-3.7-5-4.07-7.95a3.15,3.15,0,0,0-1.31-1.55,21.75,21.75,0,0,0-6.27-2.68l.22-1.21a21.29,21.29,0,0,1,5.82,2.25,17.67,17.67,0,0,1,1.89,1.07c.92-3.69,3.49-7.78,7.79-11.46,9.81-8.29,20.54-8.4,22.53-5.48,2.34,3.38-2.1,8.27-8.29,11.44-5.84,3-13,3.62-15.64,2.67a14.16,14.16,0,0,0-2.82,6.84.4.4,0,0,1,0,.18l0,.05s0,0,0,0c-.08,1.84.31,3.4,1.36,4.12,3.42,2.4,9.39,1,17.51-2.46C335.19,403,349.78,394.65,353,393.41Z"/><path d="M273.63,403.77c-1.4,2-1.29,4.08,2.45,4.44,4.44.34,9.45-3.15,13.54-6.66a48.75,48.75,0,0,0,6-6.18C288.92,394.9,277.71,397.94,273.63,403.77Zm1.63,6c-4.32-.69-4.79-4.08-2.44-7a15.89,15.89,0,0,1,1.52-1.65c5.54-5.26,14.72-7.08,22.17-6.88,4.08-5.36,6.3-10.85,4.2-12.49a2.29,2.29,0,0,0-1.55-.33l-.33-1.49a5.51,5.51,0,0,1,4.22.31c4.31,2.68,2.79,9-1.06,14.7l.49.09-.22,1.21c-.34-.09-.7-.16-1.08-.24a45.36,45.36,0,0,1-8.41,8.74C288,408.55,280.86,410.67,275.26,409.73Z"/><path d="M252.14,402.22a17.17,17.17,0,0,0,13.93-3.38c1.14-2,2.18-3.84,3-5.45.93-1.87,1.86-3.62,1.39-5.25-.69-2.58,1.29-4.44,3.62-7.36,1.41-1.75,2.34-2.45,4.33,1.86a3.51,3.51,0,0,1-.36,3.16c-2.21,4.67-7.81,13.08-9.1,15.41-.12.23.24.34.35.23,6.12-6.12,21.05-19.52,29.52-21.55l.33,1.49c-5.65.42-20.18,12.81-26.51,18.85q-1,1-1.71,1.68a54.64,54.64,0,0,0-5.48,6.18c-8.52,13.66-24.63,42.72-32.57,59.18-1.63,3.38-2.45,9.22-4.78,6.3s-2.33-3.85-1.06-5.95c8.18-13.42,23.35-41.09,34.44-60.7,1.08-1.94,2.15-3.81,3.17-5.59a17.89,17.89,0,0,1-12.79,2.12Z"/><path d="M241.12,388.39a14,14,0,0,0,6.36,12A31.27,31.27,0,0,0,255.54,386c2-8.74-5.95-11.78-11.79-4.54l-1.25-.19c5.91-8.56,19.48-8.29,16.31,5.09-1.28,5.38-4.9,10.39-9.81,14.83a15.33,15.33,0,0,0,3.14,1l-.27,1.23a19.11,19.11,0,0,1-4-1.31c-3.24,2.92-8.72,7-13.44,8l-.31-1.64c4.11-.26,9.51-4.3,12.35-7.14a14.58,14.58,0,0,1-6.3-12.95Z"/><path d="M238.62,353.12c11.55-9,16.81-24.63,11.55-27.44-5.95-3.15-19.14,3.16-30.1,15.88a210.78,210.78,0,0,0-18,24.75C217.15,366.42,229,360.59,238.62,353.12Zm14.23-30.23c6.31,3.51-.69,21.47-13.07,31.05-10.51,8.16-22.4,13.54-38.28,13.54-6.65,10.15-16,25.79-19,30.92-.36.59.11.59.34.35s2.2-1.85,7.83-6.4l1.52.83c-7.55,5.92-11.8,9.91-15.29,15.62-1.41,2.33-3.39-1.18-3.16-2.46s4.32-8,7.47-13.42c5.25-9,10.51-17.28,15.64-25.56l-.64,0,.08-1.1c.41,0,.83.06,1.25.09a189,189,0,0,1,19.63-26.74C229.16,325.8,244.33,318.11,252.85,322.89Z"/><path d="M241.18,387.55q0,.42-.06.84l-1,0c-8.41,5.48-11.8,16.92-9.46,19a4.44,4.44,0,0,0,3.41,1.07l.31,1.64a6.45,6.45,0,0,1-5.93-1.3c-1.61-1.5-2.48-4.19-2.15-7.48a49.66,49.66,0,0,1-8.24,4.9c-1,.47-2,.9-3,1.28l-.4-1c1-.38,2-.81,3-1.28a49.83,49.83,0,0,0,8.84-5.45,23.24,23.24,0,0,1,6.68-11.48,30.53,30.53,0,0,1,8.76-6.18c.16-.27.32-.53.5-.78l1.25.19a13.57,13.57,0,0,1,9.34.35c.93.47.59,1.28-.58,1.28C249.24,383.11,245.62,384.29,241.18,387.55Z"/><path d="M206.54,343.37s0,0,0,0Z"/><path d="M204.53,407.75c1.62,1.05,5.74.38,10.19-1.29l.4,1c-5.13,2-10.54,2.94-12.69,1.76-4.91-2.8-.11-10.86,4.67-18,2.56-3.85,2.8-6.07,1.63-6.9s-5-.1-14.11,6.9l-2.45,1.89-1.52-.83,3.49-2.82c7.13-5.71,14.59-11,19.39-9.56,6.06,1.74.22,9.8-2.81,14.11C206.87,399.58,201.27,405.65,204.53,407.75Z"/><path d="M180.84,362.44l-1.48.92c-2.67-1.39-4.61-3.32-4.7-4.18-.13-2.21,2.45-1.27,4.55-.23C180.51,359.61,179.78,361.71,180.84,362.44Z"/><path d="M237,92.47a471,471,0,0,1,51.71,58.67A472,472,0,0,1,330,217.41a456,456,0,0,1,29.58,72.06A430.36,430.36,0,0,1,376,365.55c.15,1.11-3.85-.39-4-1.7l-5.13-4.45c-13.18-11.32-26.74-22.33-41.26-31.9q-6.06-4-12.35-7.57l.55-1c6.2,3.51,12.23,7.32,18.1,11.37a467.12,467.12,0,0,1,39.8,31.43c-.31-2.47-.62-4.93-1-7.39a429.84,429.84,0,0,0-17.89-75,455.56,455.56,0,0,0-30.69-71,469.71,469.71,0,0,0-42.05-65,468,468,0,0,0-52.18-57.27q-14.14-13.12-29.36-25c-9.06-7.08-18.45-13.68-28-20.11l.61-.94q2.58,1.65,5.13,3.38A455.12,455.12,0,0,1,237,92.47Z"/><path d="M207.32,91.65c-12.48-18.34-26.46-35.56-40.19-53-.27-.18-.94-.68-.57-1s1.4.36,1.7.55c1,.6,1.94,1.21,2.9,1.84l-.61.94c1.16,1.41,2.33,2.8,3.47,4.22,14.12,17.45,28.14,35.09,40.46,53.88s22.77,38.51,30,59.7c7.14,20.93,11,43.21,9.28,65.35-1.7,21.4-8.49,42-17.59,61.29q-2.12,4.49-4.39,8.9,3.44.27,6.87.64a194.27,194.27,0,0,1,49.75,11.83A197.56,197.56,0,0,1,313.78,319l-.55,1a179.08,179.08,0,0,0-28.92-13.26,195.34,195.34,0,0,0-49.07-10c-1.51-.12-3-.21-4.52-.3-8.12,15.59-17.43,30.54-26.78,45.41-.64,1-4.5-1.25-3.92-2.18q2.16-3.42,4.3-6.85c7.52-12,14.9-24.13,21.54-36.65-1.67-.07-3.34-.15-5-.2a111,111,0,0,0-15,.17c-9.84,1.06-19.89,4.38-27.77,10.49-7.36,5.71-12.83,13.79-14.32,23.07a36,36,0,0,0,.14,13.69,24.42,24.42,0,0,0,6.91,12c.54.53.3.9-.32.92a4.17,4.17,0,0,1-2.44-1.14,31,31,0,0,1-4.82-5.65c-4.94-7.8-5-18.19-2.22-26.79,2.94-9.19,9.89-16.75,18.13-21.57a59.37,59.37,0,0,1,29.67-7.69q9.09,0,18.19.57c3-5.76,5.86-11.6,8.46-17.57,8.55-19.6,14.43-40.48,14.94-62,.54-21.89-3.83-43.68-11.52-64.13C231,129.48,219.84,110.05,207.32,91.65Z"/><path d="M181.31,364.2a16.35,16.35,0,0,1-1.95-.84l1.48-.92a.73.73,0,0,0,.23.13c1.17.52,2.41,1.06,3.9,1.56q6.41-10.22,12.83-20.43c.47-.74,4,1.35,3.6,2q-6.09,9.78-12.23,19.56a58.76,58.76,0,0,0,7.1,1l-.08,1.1a65.77,65.77,0,0,1-7.72-.94q-9.93,15.86-19.85,31.74c-3.8,6.09-7.61,12.4-13.43,16.79a27.16,27.16,0,0,1-19.82,4.94,37.57,37.57,0,0,1-19.3-8.79c-2.7-2.22-5.28-4.78-8.43-6.35a11,11,0,0,0-1.94-.76l.45-1.42c3.93,1.57,7.45,4.33,10.78,7.1,5.5,4.58,11.61,7.7,18.88,8a25,25,0,0,0,19.49-8.17c5.37-5.69,9.26-12.74,13.39-19.34l15.55-24.83C183.14,364.92,182.21,364.55,181.31,364.2Z"/><path d="M65.07,419.25c-4-.13-7.78-1.52-11.48-3l-1.76-.67.58-1.57,1.93.72c4,1.49,8,2.44,12.2,1.49a34,34,0,0,0,10.37-4.74c6.47-4,12.8-9.2,20.61-10.18a17,17,0,0,1,8.63,1.19L105.7,404a16.15,16.15,0,0,0-10,.65c-7.34,2.66-12.91,8.37-19.79,11.88A22.83,22.83,0,0,1,65.07,419.25Z"/><path d="M52.41,414.05l-.58,1.57A78.89,78.89,0,0,0,4.4,413.39,3.24,3.24,0,0,1,2,412.63c-.17-.12-1.53-1.23-.8-1.43A78.19,78.19,0,0,1,28,408.44a81.41,81.41,0,0,1,13.36,2.07A96.64,96.64,0,0,1,52.41,414.05Z"/><path d="M259.06,464.85,276,433h15.69l-1.68,3.19H278.51l-6,11.15h9.69l-1.68,3.19h-9.69l-7.62,14.34Z"/><path d="M296.65,465.31a8.27,8.27,0,0,1-4.71-1.05c-1-.7-1.36-1.87-1.12-3.53a22.54,22.54,0,0,1,2.66-6.8L304.65,433h4.15l-11.16,20.95a22.63,22.63,0,0,0-2.22,5.28,2.81,2.81,0,0,0,.32,2.62,3.13,3.13,0,0,0,2.34.75,7.14,7.14,0,0,0,3.15-.75,10.56,10.56,0,0,0,3.14-2.62,29.9,29.9,0,0,0,3.42-5.28L319,433h4.16l-11.17,20.95a33.23,33.23,0,0,1-4.6,6.8,13.64,13.64,0,0,1-4.88,3.53A15.3,15.3,0,0,1,296.65,465.31Z"/><path d="M321.36,464.85l17-31.87H343l-2.55,22.54h.23l12-22.54h4.15l-17,31.87H335.2l2.55-22.54h-.24l-12,22.54Z"/><path d="M362.63,465.31a30.59,30.59,0,0,1-3.76-.21,15.67,15.67,0,0,1-3.16-.7l16.51-31a29.21,29.21,0,0,1,3.92-.7,36.25,36.25,0,0,1,4-.21q3.69,0,5.39,1.44t1,5q-.69,3.57-4.11,9.95a54.91,54.91,0,0,1-6.52,9.95,18.84,18.84,0,0,1-6.35,5A16.94,16.94,0,0,1,362.63,465.31Zm-1.67-3h3.23a9,9,0,0,0,4.23-1.14,16.41,16.41,0,0,0,4.6-4,48.12,48.12,0,0,0,5.25-8.24,37.74,37.74,0,0,0,3.55-8.27c.46-1.93.36-3.27-.27-4a3.75,3.75,0,0,0-3-1.14h-3.23Z"/><path d="M388.72,464.85l17-31.87h4.15l-17,31.87Z"/><path d="M408.57,464.85l17-31.87h4.62l-2.55,22.54h.23l12-22.54H444l-17,31.87h-4.61L425,442.31h-.24l-12,22.54Z"/><path d="M452.61,465.31q-3.69,0-5.4-1.43t-1-5q.69-3.58,4.06-9.95a55.65,55.65,0,0,1,6.51-9.95,19.12,19.12,0,0,1,6.13-5,14.59,14.59,0,0,1,6.28-1.44,25.19,25.19,0,0,1,3.83.27,12.21,12.21,0,0,1,2.59.64l-1.1,2.05h-6a9,9,0,0,0-4.23,1.14,16.12,16.12,0,0,0-4.57,4,49.52,49.52,0,0,0-5.28,8.27,37.11,37.11,0,0,0-3.48,8.24q-.66,2.91.48,4a5.05,5.05,0,0,0,3.68,1.14h1.84l7.93-14.8H469l-9,16.85a27.26,27.26,0,0,1-3.24.61A28.83,28.83,0,0,1,452.61,465.31Z"/></g></svg>