<svg xmlns="http://www.w3.org/2000/svg" viewBox="0 0 512 512"><g id="Layer_5" data-name="Layer 5"><path d="M508.3,410.75c-9.65,4.55-15.08,4.7-23.35,4.69-6.61,0-13.45.81-19.91-1.31a22.46,22.46,0,0,1-8.31-5.21,69.07,69.07,0,0,0-7-6.12,14.9,14.9,0,0,0-7.31-3,12.4,12.4,0,0,0-7.43,2c-5.07,3.1-9.06,8.26-14,11.67a22.77,22.77,0,0,1-18.3,3.66c-6.17-1.46-11.4-6.08-16.34-10.6S376.37,397,370.55,394a22,22,0,0,0-18.62-1c-3.22,1.23-17.76,9.57-20.29,10.73-8.1,3.45-14.05,4.84-17.46,2.46-1-.72-1.44-2.27-1.36-4.11a.24.24,0,0,1,0,.08s0-.07,0-.1a.57.57,0,0,0,0-.18,14,14,0,0,1,2.81-6.82c2.68.94,9.77.36,15.59-2.66,6.17-3.16,10.6-8,8.26-11.41-2-2.91-12.67-2.8-22.45,5.47-4.3,3.66-6.85,7.75-7.77,11.43a16.13,16.13,0,0,0-1.89-1.08c-2.22-1-3.49-1.86-6.29-2.32,3.84-5.71,5.36-12,1.05-14.66-6.28-4-26.29,13.84-33.63,21.17-.11.11-.46,0-.35-.23,1.28-2.32,6.87-10.71,9.08-15.37a3.5,3.5,0,0,0,.36-3.14c-2-4.3-2.91-3.6-4.32-1.86-2.32,2.91-4.3,4.77-3.61,7.34.47,1.63-.46,3.37-1.39,5.23-.83,1.62-1.86,3.45-3,5.44a16.79,16.79,0,0,1-17,2.36c4.89-4.42,8.49-9.42,9.78-14.78,3.25-13.73-11.18-13.62-16.76-4.3a30.26,30.26,0,0,0-8.73,6.16,23.1,23.1,0,0,0-6.66,11.44,49.38,49.38,0,0,1-8.82,5.44c-5.46,2.56-11.17,3.84-13.15,2.56-3.25-2.09,2.33-8.14,6.17-13.62,3-4.3,8.84-12.34,2.8-14.07-4.78-1.41-12.22,3.84-19.33,9.53-8.25,6.64-11.16,9.07-11.28,9.2s-.7.23-.34-.36c3-5.11,12.33-20.71,19-30.83,15.83,0,27.69-5.35,38.16-13.5,12.34-9.54,19.32-27.45,13-31-8.5-4.77-23.62,2.91-35.6,16.64A187.16,187.16,0,0,0,196.93,366,59.55,59.55,0,0,1,188.6,365q6.1-9.74,12.19-19.5c.4-.64-3.12-2.74-3.59-2q-6.42,10.17-12.79,20.37a41.32,41.32,0,0,1-3.89-1.56c-1.39-.57-.46-2.91-1.86-3.61-2.09-1-4.66-2-4.53.24.11,1.05,3,3.72,6.62,5,.91.35,1.84.72,2.93,1.08l-15.5,24.76c-4.12,6.58-8,13.6-13.35,19.28a25,25,0,0,1-19.43,8.15c-7.25-.31-13.34-3.42-18.82-8s-11.65-9.24-19.35-8.27-14.1,6.13-20.55,10.15a34,34,0,0,1-10.34,4.73c-4.22.94-8.2,0-12.16-1.49a111.15,111.15,0,0,0-12.94-4.24A81.1,81.1,0,0,0,27.92,408a78,78,0,0,0-26.71,2.75c-.73.21.63,1.31.8,1.43a3.22,3.22,0,0,0,2.37.76,78.69,78.69,0,0,1,49.05,2.89c3.69,1.43,7.45,2.82,11.45,2.95A22.67,22.67,0,0,0,75.67,416c6.86-3.49,12.41-9.18,19.74-11.84,3.83-1.39,8.17-1.76,11.91.11,3.14,1.57,5.71,4.12,8.4,6.34A37.53,37.53,0,0,0,135,419.37a27,27,0,0,0,19.76-4.92c5.8-4.37,9.61-10.67,13.39-16.73q9.87-15.86,19.79-31.65a68.27,68.27,0,0,0,8.33,1c-5.11,8.25-10.35,16.52-15.59,25.48-3.14,5.35-7.21,12.22-7.44,13.38s1.73,4.77,3.14,2.45c3.84-6.28,8.61-10.48,17.69-17.46s12.91-7.68,14.07-6.87.93,3-1.63,6.87c-4.76,7.09-9.54,15.12-4.65,17.92,2.56,1.4,9.78-.23,15.6-3a49.65,49.65,0,0,0,8.21-4.89c-.33,3.28.54,6,2.14,7.46,4.89,4.53,14.55-2.34,19.32-6.64a18,18,0,0,0,16.77-.81c-1,1.78-2.09,3.64-3.17,5.58C249.64,426,234.52,453.62,226.37,467c-1.28,2.09-1.28,3,1,5.93s3.14-2.91,4.76-6.28c7.91-16.41,24-45.38,32.47-59a56.54,56.54,0,0,1,5.47-6.16c5.35-5.47,25.49-23.16,29.67-20.14,2.1,1.64-.11,7.11-4.18,12.46-8.16-.23-18.39,2-23.62,8.5-2.34,2.91-1.87,6.28,2.43,7,5.59.93,12.69-1.18,17.46-5a46,46,0,0,0,8.39-8.72,21,21,0,0,1,7.32,2.91A3.22,3.22,0,0,1,308.9,400c.37,2.94,1.63,6.53,4.05,7.94,5.53,3.2,14.36-.31,20.44-3.59s12.15-6.33,18.18-9c5.77-2.56,11.89-3.5,17.79-1,6.07,2.56,11.13,7.93,16.21,12.58,4.87,4.45,10,8.72,15.83,11a23.17,23.17,0,0,0,17.8-.21c5.47-2.35,9.67-7.13,14.33-11.14s10.21-6.89,15.55-3.24c2.45,1.68,4.56,4,6.82,6.07a31.5,31.5,0,0,0,7.63,5.3c6.68,3.18,14,3,21,2.75l12.66-.5c4-.16,7.66-1,13.62-4C511.69,412.55,508.69,410.57,508.3,410.75ZM320.74,389.26c8.84-7.67,15.25-8.95,16.64-6.51,1.29,2.21-3.26,6.64-7.1,8.73-4.77,2.56-10.94,3.14-13.84,2.33A25.36,25.36,0,0,1,320.74,389.26ZM219.4,341.33c10.93-12.69,24.08-19,30-15.83,5.24,2.8,0,18.38-11.52,27.34-9.54,7.45-21.4,13.27-36.42,13.16A210.79,210.79,0,0,1,219.4,341.33ZM230,407c-2.33-2.09,1-13.49,9.43-19a14.53,14.53,0,0,0,6.28,12.91C242,404.63,233.82,410.45,230,407Zm16.75-7a13.78,13.78,0,0,1-6.28-12.8c4.42-3.25,8-4.42,11.29-4.42,1.17,0,1.51-.81.58-1.27a13.52,13.52,0,0,0-9.3-.36c5.82-7.21,13.72-4.18,11.74,4.54A31.11,31.11,0,0,1,246.73,400Zm42,1.16c-4.07,3.5-9.07,7-13.5,6.64-3.73-.35-3.84-2.44-2.44-4.42,4.07-5.82,15.24-8.84,21.88-8.38A49.13,49.13,0,0,1,288.74,401.13Z"/><path d="M206,343.16s0,0,0,0Z"/><path d="M167.51,354.87a4.08,4.08,0,0,0,2.42,1.13c.63,0,.86-.39.33-.91a24.22,24.22,0,0,1-6.89-12,35.82,35.82,0,0,1-.15-13.65c1.49-9.25,6.94-17.31,14.28-23,7.85-6.09,17.88-9.4,27.68-10.45a112.07,112.07,0,0,1,15-.18c1.67.05,3.33.13,5,.21-6.61,12.48-14,24.57-21.47,36.54q-2.13,3.42-4.29,6.82c-.58.93,3.27,3.2,3.91,2.17,9.33-14.82,18.61-29.73,26.7-45.27,1.5.1,3,.18,4.5.31a194,194,0,0,1,48.92,10,188.57,188.57,0,0,1,41.15,20.77c14.48,9.54,28,20.51,41.13,31.81,1.71,1.47,3.41,2.94,5.11,4.43.21,1.3,4.19,2.81,4.05,1.69a428.35,428.35,0,0,0-16.43-75.84A456,456,0,0,0,329,217.55a469.62,469.62,0,0,0-41.15-66.06A469.73,469.73,0,0,0,236.26,93a454.52,454.52,0,0,0-60.5-48.88q-4-2.67-8-5.2c-.3-.19-1.34-.87-1.7-.55s.3.84.57,1c13.7,17.34,27.63,34.51,40.07,52.8s23.6,37.71,31.42,58.52c7.67,20.39,12,42.11,11.5,63.94-.52,21.41-6.38,42.23-14.91,61.76-2.59,6-5.44,11.77-8.43,17.52q-9.06-.56-18.13-.57A59.23,59.23,0,0,0,178.56,301c-8.22,4.8-15.15,12.34-18.07,21.51-2.74,8.57-2.72,18.93,2.21,26.69A29.85,29.85,0,0,0,167.51,354.87Zm68-69.49c9.07-19.27,15.84-39.77,17.52-61.11,1.75-22.07-2.13-44.28-9.25-65.15-7.21-21.12-17.69-40.89-29.91-59.52s-26.25-36.31-40.34-53.71c-1.14-1.41-2.3-2.81-3.46-4.2,9.5,6.41,18.87,13,27.9,20.05q15.15,11.85,29.27,25a466.61,466.61,0,0,1,52,57.09,468.34,468.34,0,0,1,41.92,64.77,455.18,455.18,0,0,1,30.6,70.74,429.82,429.82,0,0,1,17.84,74.79c.35,2.46.66,4.92,1,7.38a466.08,466.08,0,0,0-39.69-31.34,213.4,213.4,0,0,0-43.32-23.45,193.32,193.32,0,0,0-49.6-11.8q-3.42-.37-6.86-.64Q233.35,289.84,235.47,285.38Z"/></g></svg>