<svg xmlns="http://www.w3.org/2000/svg" viewBox="0 0 512 512"><g id="Layer_5" data-name="Layer 5"><path d="M458.12,409.36a22.5,22.5,0,0,0,8.34,5.23c6.48,2.12,13.34,1.56,20,1.31,7.57-.3,15.87-2.89,23.23-4.38.42-.09,1.95.58,1.07.92C507,413.91,490.29,417.79,486,418c-7.06.27-14.39.43-21.09-2.76a31.75,31.75,0,0,1-7.66-5.32c-2-1.79-3.85-3.82-5.93-5.42l.51-.69A80,80,0,0,1,458.12,409.36Z"/><path d="M377.41,398.06c3.55,2.68,6.86,5.87,10.18,8.91,5,4.54,10.21,9.18,16.4,10.63a22.8,22.8,0,0,0,18.35-3.66c4.93-3.42,8.93-8.6,14-11.71a12.4,12.4,0,0,1,7.45-2.05,15,15,0,0,1,7.33,3l.74.55-.51.69c-.29-.24-.59-.45-.9-.67-5.36-3.66-11-.69-15.61,3.26s-8.89,8.82-14.37,11.16a23.21,23.21,0,0,1-17.85.22c-5.84-2.32-11-6.6-15.88-11.07-3.19-2.91-6.36-6.1-9.79-8.72Z"/><path d="M317.41,394.2c2.9.82,9.1.24,13.88-2.34,3.85-2.09,8.41-6.53,7.12-8.75-1.39-2.44-7.82-1.17-16.69,6.53A25.45,25.45,0,0,0,317.41,394.2Zm35.59-.79a22.08,22.08,0,0,1,18.68,1,38.2,38.2,0,0,1,5.73,3.69l-.45.58a29.74,29.74,0,0,0-6.47-3.89c-5.93-2.49-12.06-1.55-17.85,1-6.05,2.67-12.14,5.74-18.24,9s-14.94,6.81-20.49,3.59c-2.43-1.41-3.7-5-4.07-7.95a3.15,3.15,0,0,0-1.31-1.55,21.48,21.48,0,0,0-6.27-2.68l.22-1.21a21.29,21.29,0,0,1,5.82,2.25,17.67,17.67,0,0,1,1.89,1.07c.92-3.69,3.49-7.78,7.79-11.46,9.81-8.29,20.54-8.4,22.53-5.48,2.34,3.38-2.1,8.27-8.29,11.44-5.84,3-13,3.62-15.64,2.67a14.16,14.16,0,0,0-2.82,6.84.39.39,0,0,1,0,.18l0,.05s0,0,0,0c-.08,1.84.31,3.4,1.36,4.12,3.42,2.39,9.39,1,17.51-2.46C335.19,403,349.78,394.65,353,393.41Z"/><path d="M273.63,403.77c-1.4,2-1.29,4.08,2.45,4.44,4.44.34,9.45-3.15,13.54-6.66a48.75,48.75,0,0,0,6-6.18C288.92,394.9,277.71,397.94,273.63,403.77Zm1.63,6c-4.32-.7-4.79-4.08-2.44-7a15.89,15.89,0,0,1,1.52-1.65c5.54-5.26,14.72-7.08,22.17-6.88,4.08-5.36,6.3-10.85,4.2-12.49a2.29,2.29,0,0,0-1.55-.33l-.33-1.49a5.51,5.51,0,0,1,4.22.31c4.31,2.68,2.79,9-1.06,14.7l.49.09-.22,1.21c-.34-.09-.7-.16-1.08-.24a45.65,45.65,0,0,1-8.41,8.74C288,408.55,280.86,410.67,275.26,409.73Z"/><path d="M252.14,402.22a17.17,17.17,0,0,0,13.93-3.38c1.14-2,2.18-3.84,3-5.45.93-1.87,1.86-3.62,1.39-5.25-.69-2.58,1.29-4.44,3.62-7.36,1.41-1.75,2.34-2.45,4.33,1.86a3.51,3.51,0,0,1-.36,3.16c-2.21,4.67-7.81,13.08-9.1,15.41-.12.23.24.34.35.23,6.12-6.12,21.05-19.52,29.52-21.55l.33,1.49c-5.65.42-20.18,12.81-26.51,18.85q-1,1-1.71,1.68a54.64,54.64,0,0,0-5.48,6.18c-8.52,13.66-24.63,42.72-32.57,59.18-1.63,3.38-2.45,9.22-4.78,6.3s-2.33-3.85-1.06-5.95c8.18-13.42,23.35-41.09,34.44-60.7,1.08-1.95,2.15-3.81,3.17-5.59a17.89,17.89,0,0,1-12.79,2.12Z"/><path d="M241.12,388.39a13.94,13.94,0,0,0,6.36,12A31.19,31.19,0,0,0,255.54,386c2-8.74-5.95-11.78-11.79-4.55l-1.25-.18c5.91-8.56,19.48-8.29,16.31,5.09-1.28,5.38-4.9,10.39-9.81,14.83a15.33,15.33,0,0,0,3.14,1l-.27,1.23a19.11,19.11,0,0,1-4-1.31c-3.24,2.92-8.72,7-13.44,8l-.31-1.64c4.11-.26,9.51-4.3,12.35-7.14a14.58,14.58,0,0,1-6.3-12.95Z"/><path d="M238.62,353.12c11.55-9,16.81-24.63,11.55-27.44-5.95-3.15-19.14,3.16-30.1,15.88a210.78,210.78,0,0,0-18,24.75C217.15,366.42,229,360.58,238.62,353.12Zm14.23-30.23c6.31,3.5-.69,21.47-13.07,31-10.51,8.17-22.4,13.55-38.28,13.55-6.65,10.15-16,25.79-19,30.92-.36.59.11.59.34.35s2.2-1.85,7.83-6.4l1.52.83c-7.55,5.92-11.8,9.91-15.29,15.62-1.41,2.33-3.39-1.18-3.16-2.46s4.32-8,7.47-13.42c5.25-9,10.51-17.28,15.64-25.56l-.64,0,.08-1.1c.41,0,.83.06,1.25.09a189,189,0,0,1,19.63-26.74C229.16,325.8,244.33,318.11,252.85,322.89Z"/><path d="M241.18,387.55q0,.42-.06.84l-1,0c-8.41,5.48-11.8,16.92-9.46,19a4.44,4.44,0,0,0,3.41,1.07l.31,1.64c-2.26.44-4.35.17-5.93-1.3s-2.48-4.19-2.15-7.48a49.66,49.66,0,0,1-8.24,4.9c-1,.47-2,.9-3,1.28l-.4-1c1-.38,2-.81,3-1.28a49.83,49.83,0,0,0,8.84-5.45,23.24,23.24,0,0,1,6.68-11.48,30.53,30.53,0,0,1,8.76-6.18c.16-.27.32-.53.5-.78l1.25.18a13.62,13.62,0,0,1,9.34.36c.93.47.59,1.28-.58,1.28C249.24,383.11,245.62,384.29,241.18,387.55Z"/><path d="M206.54,343.37s0,0,0,0Z"/><path d="M204.53,407.75c1.62,1.05,5.74.38,10.19-1.29l.4,1c-5.13,2-10.54,2.94-12.69,1.76-4.91-2.8-.11-10.86,4.67-18,2.56-3.85,2.8-6.07,1.63-6.9s-5-.1-14.11,6.9l-2.45,1.89-1.52-.83,3.49-2.82c7.13-5.71,14.59-11,19.39-9.56,6.06,1.74.22,9.8-2.81,14.11C206.87,399.58,201.27,405.65,204.53,407.75Z"/><path d="M180.84,362.44l-1.48.92c-2.67-1.39-4.61-3.32-4.7-4.18-.13-2.21,2.45-1.27,4.55-.23C180.51,359.61,179.78,361.71,180.84,362.44Z"/><path d="M181.65,399.6c-9.84,10-38.32,18.35-45.84,18-7.27-.3-13.38-3.42-18.88-8-3.33-2.77-6.85-5.53-10.78-7.1L105.7,404a11,11,0,0,1,1.94.76c3.15,1.57,5.73,4.13,8.43,6.35a37.66,37.66,0,0,0,19.3,8.79c7,.87,33.9-8.33,45.47-17.36C180.83,402.49,185.06,400.26,181.65,399.6Z"/><path d="M181.07,362.57a.73.73,0,0,1-.23-.13l-1.48.92a16.35,16.35,0,0,0,1.95.84c.9.35,11.62,2.89,14.88,3.12l.08-1.1C193.42,366,182.24,363.09,181.07,362.57Z"/><path d="M65.07,419.25c-4-.13-7.78-1.53-11.48-3l-1.76-.67.58-1.57,1.93.72c4,1.49,8,2.44,12.2,1.49a34,34,0,0,0,10.37-4.74c6.47-4,12.8-9.2,20.61-10.18a17,17,0,0,1,8.63,1.19L105.7,404a16.15,16.15,0,0,0-10,.65c-7.34,2.66-12.91,8.37-19.79,11.88A22.83,22.83,0,0,1,65.07,419.25Z"/><path d="M52.41,414.05l-.58,1.57A78.89,78.89,0,0,0,4.4,413.39,3.24,3.24,0,0,1,2,412.63c-.17-.12-1.53-1.23-.8-1.43A78.19,78.19,0,0,1,28,408.44a81.41,81.41,0,0,1,13.36,2.07A96.64,96.64,0,0,1,52.41,414.05Z"/></g></svg>